<svg width="32" height="32" viewBox="0 0 32 32" fill="none" xmlns="http://www.w3.org/2000/svg">
<path d="M26.6665 8H5.33317C3.86041 8 2.6665 9.19391 2.6665 10.6667V21.3333C2.6665 22.8061 3.86041 24 5.33317 24H26.6665C28.1393 24 29.3332 22.8061 29.3332 21.3333V10.6667C29.3332 9.19391 28.1393 8 26.6665 8Z" stroke="white" stroke-width="2" stroke-linecap="round" stroke-linejoin="round"/>
<path d="M16.0002 18.6666C17.4729 18.6666 18.6668 17.4727 18.6668 16C18.6668 14.5272 17.4729 13.3333 16.0002 13.3333C14.5274 13.3333 13.3335 14.5272 13.3335 16C13.3335 17.4727 14.5274 18.6666 16.0002 18.6666Z" stroke="white" stroke-width="2" stroke-linecap="round" stroke-linejoin="round"/>
<path d="M8 16H8.01333M24 16H24.0133" stroke="white" stroke-width="2" stroke-linecap="round" stroke-linejoin="round"/>
</svg>
