<svg width="25" height="26" viewBox="0 0 25 26" fill="currentColor" xmlns="http://www.w3.org/2000/svg">
<path d="M20.3352 0.330719C22.6459 0.330719 24.5343 2.13915 24.6617 4.41801L24.6685 4.66391L24.6677 20.6691C24.6675 23.0621 22.7275 25.0023 20.3343 25.0023H4.33341C2.02268 25.0023 0.134347 23.1939 0.00685342 20.9149L0 20.6691L0.000800133 4.66393C0.00108013 2.27083 1.94109 0.330719 4.3342 0.330719H20.3352ZM11.3333 9.66405L2 9.66539L2.00013 20.6689L2.00971 20.8832C2.11785 22.0715 3.11687 23.0023 4.33333 23.0023L11.3333 23.0013V9.66405ZM22.6667 17.664L13.3333 17.6653V23.0013L20.3341 23.0023C21.6229 23.0023 22.6676 21.9575 22.6677 20.6688L22.6667 17.664ZM20.3352 2.33072L13.3333 2.32939V15.6653L22.6667 15.664L22.6684 4.66401L22.6588 4.44971C22.5507 3.26144 21.5517 2.33072 20.3352 2.33072ZM11.3333 2.32939L4.33431 2.33072L4.14297 2.33847C2.9438 2.43589 2.00095 3.43991 2.0008 4.66409L2 7.66539L11.3333 7.66405V2.32939Z" fill="currentColor"/>
</svg>
