<svg width="32" height="32" viewBox="0 0 32 32" fill="none" xmlns="http://www.w3.org/2000/svg">
<path d="M27.2268 6.10666C26.5579 5.43543 25.763 4.90284 24.8879 4.53944C24.0127 4.17605 23.0744 3.98898 22.1268 3.98898C21.1792 3.98898 20.2409 4.17605 19.3657 4.53944C18.4905 4.90284 17.6957 5.43543 17.0268 6.10666L16.0001 7.14666L14.9734 6.10666C14.3045 5.43543 13.5097 4.90284 12.6345 4.53944C11.7594 4.17605 10.8211 3.98898 9.87345 3.98898C8.92583 3.98898 7.98753 4.17605 7.11235 4.53944C6.23718 4.90284 5.44235 5.43543 4.77345 6.10666C1.94678 8.93333 1.77345 13.7067 5.33345 17.3333L16.0001 28L26.6668 17.3333C30.2268 13.7067 30.0534 8.93333 27.2268 6.10666Z" stroke="white" stroke-width="2" stroke-linecap="round" stroke-linejoin="round"/>
<path d="M15.9999 7.14667L11.8266 11.3333C11.299 11.8653 11.0029 12.5841 11.0029 13.3333C11.0029 14.0825 11.299 14.8014 11.8266 15.3333V15.3333C12.3585 15.8609 13.0774 16.157 13.8266 16.157C14.5758 16.157 15.2947 15.8609 15.8266 15.3333L18.8399 12.3867C19.5888 11.6457 20.5998 11.2301 21.6533 11.2301C22.7068 11.2301 23.7177 11.6457 24.4666 12.3867L27.6666 15.5867" stroke="white" stroke-width="2" stroke-linecap="round" stroke-linejoin="round"/>
<path d="M24.0002 20L21.3335 17.3333" stroke="white" stroke-width="2" stroke-linecap="round" stroke-linejoin="round"/>
<path d="M20.0002 24L17.3335 21.3333" stroke="white" stroke-width="2" stroke-linecap="round" stroke-linejoin="round"/>
</svg>
