<svg width="32" height="32" viewBox="0 0 32 32" fill="none" xmlns="http://www.w3.org/2000/svg">
<path d="M28 2.66669V10.6667H20" stroke="white" stroke-width="2" stroke-linecap="round" stroke-linejoin="round"/>
<path d="M4 16C4.00211 13.6844 4.67413 11.4189 5.93501 9.47671C7.19588 7.53452 8.99175 5.99862 11.106 5.05425C13.2203 4.10988 15.5626 3.79739 17.8505 4.15447C20.1384 4.51155 22.2741 5.52294 24 7.06667L28 10.6667" stroke="white" stroke-width="2" stroke-linecap="round" stroke-linejoin="round"/>
<path d="M4 29.3333V21.3333H12" stroke="white" stroke-width="2" stroke-linecap="round" stroke-linejoin="round"/>
<path d="M28 16C27.9979 18.3156 27.3259 20.5811 26.065 22.5233C24.8041 24.4655 23.0082 26.0014 20.894 26.9457C18.7797 27.8901 16.4374 28.2026 14.1495 27.8455C11.8616 27.4884 9.72593 26.4771 8 24.9333L4 21.3333" stroke="white" stroke-width="2" stroke-linecap="round" stroke-linejoin="round"/>
</svg>
