<svg width="25" height="25" viewBox="0 0 25 25" fill="none" xmlns="http://www.w3.org/2000/svg">
<g clip-path="url(#clip0_957_2764)">
<path fill-rule="evenodd" clip-rule="evenodd" d="M11.2055 24.2188H5.46875C4.17422 24.2188 3.125 23.1695 3.125 21.875V15.3664C3.125 14.2336 3.93515 13.2633 5.04922 13.0609C6.70078 12.7602 9.54843 12.2422 11.1594 11.95C12.0461 11.7883 12.9539 11.7883 13.8406 11.95C15.4516 12.2422 18.2992 12.7602 19.9508 13.0609C21.0648 13.2633 21.875 14.2336 21.875 15.3664C21.875 17.0703 21.875 20.0516 21.875 21.875C21.875 23.1695 20.8258 24.2188 19.5312 24.2188H11.2055ZM18.6156 14.4063L18.6188 14.4102C18.7555 14.6148 18.7875 14.8719 18.7055 15.1039L18.1539 16.6664C18.082 16.8703 17.9281 17.0359 17.7297 17.1227L16.6922 17.575L17.1047 18.4008C17.2203 18.6312 17.2141 18.9039 17.0891 19.1297L15.1297 22.6562H19.5312C19.9625 22.6562 20.3125 22.3062 20.3125 21.875C20.3125 20.0516 20.3125 17.0703 20.3125 15.3664C20.3125 14.9891 20.0422 14.6656 19.6711 14.5977L18.6156 14.4063ZM16.4789 14.0172L13.5609 13.4867C12.8594 13.3594 12.1406 13.3594 11.4391 13.4867L8.52109 14.0172L7.89766 14.9523L8.20625 15.8258L9.6875 16.4711C9.88359 16.557 10.0359 16.7195 10.1094 16.9211C10.1828 17.1227 10.1695 17.3453 10.0734 17.5367L9.47656 18.7305L11.6578 22.6562H13.3422L15.5234 18.7305L14.9266 17.5367C14.8305 17.3453 14.8172 17.1227 14.8906 16.9211C14.9641 16.7195 15.1164 16.557 15.3125 16.4711L16.7938 15.8258L17.1023 14.9523L16.4789 14.0172ZM6.38437 14.4063L5.32891 14.5977C4.95781 14.6656 4.6875 14.9891 4.6875 15.3664V21.875C4.6875 22.3062 5.0375 22.6562 5.46875 22.6562H9.87031L7.91094 19.1297C7.78594 18.9039 7.77969 18.6312 7.89531 18.4008L8.30781 17.575L7.27031 17.1227C7.07187 17.0359 6.91797 16.8703 6.84609 16.6664L6.29453 15.1039C6.2125 14.8719 6.24453 14.6148 6.38125 14.4102L6.38437 14.4063ZM17.9688 18.75V20.3125C17.9688 20.7437 18.3188 21.0938 18.75 21.0938C19.1812 21.0938 19.5312 20.7437 19.5312 20.3125V18.75C19.5312 18.3188 19.1812 17.9688 18.75 17.9688C18.3188 17.9688 17.9688 18.3188 17.9688 18.75ZM12.5 0.78125C9.69766 0.78125 7.42188 3.05703 7.42188 5.85938C7.42188 8.66172 9.69766 10.9375 12.5 10.9375C15.3023 10.9375 17.5781 8.66172 17.5781 5.85938C17.5781 3.05703 15.3023 0.78125 12.5 0.78125ZM12.5 2.34375C14.4406 2.34375 16.0156 3.91875 16.0156 5.85938C16.0156 7.8 14.4406 9.375 12.5 9.375C10.5594 9.375 8.98438 7.8 8.98438 5.85938C8.98438 3.91875 10.5594 2.34375 12.5 2.34375Z" fill="white"/>
</g>
<defs>
<clipPath id="clip0_957_2764">
<rect width="25" height="25" fill="white"/>
</clipPath>
</defs>
</svg>
