<svg width="22" height="28" viewBox="0 0 22 28" fill="none" xmlns="http://www.w3.org/2000/svg">
<path d="M18.6721 16.6669C20.3281 16.6669 21.6705 18.0093 21.6705 19.6655V20.4326C21.6705 21.625 21.2444 22.7781 20.4691 23.684C18.3765 26.1287 15.1937 27.3351 10.9999 27.3351C6.80534 27.3351 3.624 26.1283 1.5356 23.6825C0.762584 22.7773 0.337891 21.626 0.337891 20.4356V19.6655C0.337891 18.0093 1.68036 16.6669 3.33638 16.6669H18.6721ZM18.6721 18.6669H3.33638C2.78493 18.6669 2.33789 19.114 2.33789 19.6655V20.4356C2.33789 21.1499 2.5927 21.8407 3.05652 22.3837C4.72758 24.3407 7.34876 25.3351 10.9999 25.3351C14.6509 25.3351 17.2744 24.3406 18.9497 22.3834C19.4149 21.8398 19.6705 21.148 19.6705 20.4326V19.6655C19.6705 19.114 19.2235 18.6669 18.6721 18.6669ZM10.9999 0.673157C14.6817 0.673157 17.6665 3.65793 17.6665 7.33982C17.6665 11.0217 14.6817 14.0065 10.9999 14.0065C7.31793 14.0065 4.33317 11.0217 4.33317 7.33982C4.33317 3.65793 7.31793 0.673157 10.9999 0.673157ZM10.9999 2.67316C8.42253 2.67316 6.33317 4.7625 6.33317 7.33982C6.33317 9.91716 8.42253 12.0065 10.9999 12.0065C13.5772 12.0065 15.6665 9.91716 15.6665 7.33982C15.6665 4.7625 13.5772 2.67316 10.9999 2.67316Z" fill="white"/>
</svg>
