<svg width="40" height="40" viewBox="0 0 40 40" fill="none" xmlns="http://www.w3.org/2000/svg">
<path d="M39.4086 19.7492C39.4086 17.1616 38.899 14.5994 37.9087 12.2087C36.9185 9.81808 35.4671 7.64589 33.6374 5.81618C31.8076 3.98647 29.6355 2.53506 27.2448 1.54482C24.8542 0.554589 22.2919 0.0449218 19.7043 0.0449219C17.1167 0.044922 14.5544 0.554589 12.1638 1.54482C9.77316 2.53506 7.60097 3.98647 5.77126 5.81618C3.94154 7.6459 2.49013 9.81808 1.4999 12.2087C0.509667 14.5994 -2.26216e-07 17.1616 0 19.7492L8.03081 19.7492C8.03081 18.2162 8.33275 16.6983 8.9194 15.282C9.50605 13.8657 10.3659 12.5788 11.4499 11.4948C12.5339 10.4108 13.8208 9.55097 15.2371 8.96432C16.6533 8.37767 18.1713 8.07573 19.7043 8.07573C21.2373 8.07573 22.7553 8.37767 24.1716 8.96432C25.5879 9.55097 26.8747 10.4108 27.9587 11.4948C29.0427 12.5788 29.9026 13.8657 30.4892 15.282C31.0759 16.6983 31.3778 18.2162 31.3778 19.7492L39.4086 19.7492Z" fill="currentColor"/>
<path d="M28.5375 19.7493C28.5375 18.5894 28.309 17.4408 27.8651 16.3691C27.4212 15.2975 26.7706 14.3237 25.9504 13.5035C25.1302 12.6833 24.1564 12.0326 23.0848 11.5888C22.0131 11.1449 20.8645 10.9164 19.7045 10.9164C18.5446 10.9164 17.396 11.1449 16.3243 11.5888C15.2527 12.0326 14.2789 12.6833 13.4587 13.5035C12.6385 14.3237 11.9878 15.2975 11.544 16.3691C11.1001 17.4408 10.8716 18.5894 10.8716 19.7493L14.4716 19.7493C14.4716 19.0621 14.607 18.3817 14.8699 17.7468C15.1329 17.1119 15.5184 16.535 16.0043 16.0491C16.4902 15.5632 17.0671 15.1777 17.702 14.9147C18.3369 14.6518 19.0173 14.5164 19.7045 14.5164C20.3917 14.5164 21.0722 14.6518 21.7071 14.9147C22.342 15.1777 22.9189 15.5632 23.4048 16.0491C23.8907 16.535 24.2762 17.1119 24.5392 17.7468C24.8021 18.3817 24.9375 19.0621 24.9375 19.7493L28.5375 19.7493Z" fill="currentColor"/>
<path d="M17.6659 19.7492C17.6659 19.2086 17.8807 18.6901 18.2629 18.3079C18.6452 17.9256 19.1637 17.7108 19.7043 17.7108C20.2449 17.7108 20.7634 17.9256 21.1456 18.3079C21.5279 18.6901 21.7427 19.2086 21.7427 19.7492L19.7043 19.7492L17.6659 19.7492Z" fill="currentColor"/>
</svg>
