<svg width="54" height="85" viewBox="0 0 54 85" fill="none" xmlns="http://www.w3.org/2000/svg">
<g opacity="0.1">
<path d="M-9.75 75H27.75" stroke="white" stroke-width="2" stroke-linecap="round" stroke-linejoin="round"/>
<path d="M1.5 75C22.125 65.625 4.5 51 12.75 37.5" stroke="white" stroke-width="2" stroke-linecap="round" stroke-linejoin="round"/>
<path d="M-0.375 35.25C3.75 38.25 6.375 43.5 8.25 49.125C0.75 50.625 -4.875 50.625 -9.75 48C-14.25 45.75 -18.375 40.875 -21 32.25C-10.5 30.375 -4.5 32.25 -0.375 35.25Z" fill="white" stroke="white" stroke-width="2" stroke-linecap="round" stroke-linejoin="round"/>
<path d="M16.8752 22.5C14.0161 26.9683 12.5779 32.1981 12.7502 37.5C19.8752 37.125 25.1252 35.25 28.8752 32.25C32.6252 28.5 34.8752 23.625 35.2502 15C25.1252 15.375 20.2502 18.75 16.8752 22.5Z" fill="white" stroke="white" stroke-width="2" stroke-linecap="round" stroke-linejoin="round"/>
</g>
</svg>
